HIERARCHY
ROOT Root
{
  OFFSET 0.0 0.0 0.0
  CHANNELS 6 Xposition Yposition Zposition Zrotation Yrotation Xrotation
  JOINT Hips
  {
    OFFSET 0.0 100.0 0.0
    CHANNELS 6 Xposition Yposition Zposition Zrotation Yrotation Xrotation
    JOINT Spine1
    {
      OFFSET 5.003913 -0.037094 -0.013727
      CHANNELS 3 Zrotation Yrotation Xrotation
      JOINT Spine2
      {
        OFFSET 7.125363 -1e-06 0.0
        CHANNELS 3 Zrotation Yrotation Xrotation
        JOINT Chest
        {
          OFFSET 7.594027 1e-06 0.0
          CHANNELS 3 Zrotation Yrotation Xrotation
          JOINT Neck1
          {
            OFFSET 26.313086 -0.460272 -0.181672
            CHANNELS 3 Zrotation Yrotation Xrotation
            JOINT Neck2
            {
              OFFSET 8.045911 0.0 0.0
              CHANNELS 3 Zrotation Yrotation Xrotation
              JOINT Head
              {
                OFFSET 6.432774 0.0 0.0
                CHANNELS 3 Zrotation Yrotation Xrotation
                JOINT HeadEnd
                {
                  OFFSET 16.169773 0.06451 0.00362
                  CHANNELS 3 Zrotation Yrotation Xrotation
                }
                JOINT Jaw
                {
                  OFFSET 0.108741 3.12938 0.002639
                  CHANNELS 3 Zrotation Yrotation Xrotation
                }
                JOINT LeftEye
                {
                  OFFSET 4.45173 8.166359 3.206392
                  CHANNELS 3 Zrotation Yrotation Xrotation
                }
                JOINT RightEye
                {
                  OFFSET 4.436895 8.135758 -3.222429
                  CHANNELS 3 Zrotation Yrotation Xrotation
                }
              }
            }
          }
          JOINT LeftShoulder
          {
            OFFSET 23.218927 5.195579 1.621656
            CHANNELS 3 Zrotation Yrotation Xrotation
            JOINT LeftArm
            {
              OFFSET 15.902118 2e-06 -2e-06
              CHANNELS 3 Zrotation Yrotation Xrotation
              JOINT LeftForeArm
              {
                OFFSET 28.739307 0.0 -1e-06
                CHANNELS 3 Zrotation Yrotation Xrotation
                JOINT LeftHand
                {
                  OFFSET 27.093981 -4e-06 0.0
                  CHANNELS 3 Zrotation Yrotation Xrotation
                  JOINT LeftHandThumb1
                  {
                    OFFSET 2.276781 3.380274 0.83384
                    CHANNELS 3 Zrotation Yrotation Xrotation
                    JOINT LeftHandThumb2
                    {
                      OFFSET 4.705309 -1e-06 -1e-06
                      CHANNELS 3 Zrotation Yrotation Xrotation
                      JOINT LeftHandThumb3
                      {
                        OFFSET 2.798515 0.0 3e-06
                        CHANNELS 3 Zrotation Yrotation Xrotation
                        JOINT LeftHandThumbEnd
                        {
                          OFFSET 3.180793 4e-06 -4e-06
                          CHANNELS 3 Zrotation Yrotation Xrotation
                        }
                      }
                    }
                  }
                  JOINT LeftHandIndex1
                  {
                    OFFSET 3.247786 2.352677 0.137192
                    CHANNELS 3 Zrotation Yrotation Xrotation
                    JOINT LeftHandIndex2
                    {
                      OFFSET 6.367095 1e-06 0.0
                      CHANNELS 3 Zrotation Yrotation Xrotation
                      JOINT LeftHandIndex3
                      {
                        OFFSET 3.662364 0.0 0.0
                        CHANNELS 3 Zrotation Yrotation Xrotation
                        JOINT LeftHandIndex4
                        {
                          OFFSET 2.329242 4e-06 -4e-06
                          CHANNELS 3 Zrotation Yrotation Xrotation
                          JOINT LeftHandIndexEnd
                          {
                            OFFSET 2.767823 1e-06 0.0
                            CHANNELS 3 Zrotation Yrotation Xrotation
                          }
                        }
                      }
                    }
                  }
                  JOINT LeftHandMiddle1
                  {
                    OFFSET 3.163612 0.945023 -0.406112
                    CHANNELS 3 Zrotation Yrotation Xrotation
                    JOINT LeftHandMiddle2
                    {
                      OFFSET 6.276789 3e-06 0.0
                      CHANNELS 3 Zrotation Yrotation Xrotation
                      JOINT LeftHandMiddle3
                      {
                        OFFSET 4.35652 -1e-06 4e-06
                        CHANNELS 3 Zrotation Yrotation Xrotation
                        JOINT LeftHandMiddle4
                        {
                          OFFSET 2.996877 0.0 8e-06
                          CHANNELS 3 Zrotation Yrotation Xrotation
                          JOINT LeftHandMiddleEnd
                          {
                            OFFSET 2.323256 3e-06 -4e-06
                            CHANNELS 3 Zrotation Yrotation Xrotation
                          }
                        }
                      }
                    }
                  }
                  JOINT LeftHandRing1
                  {
                    OFFSET 2.882606 -0.309162 0.107445
                    CHANNELS 3 Zrotation Yrotation Xrotation
                    JOINT LeftHandRing2
                    {
                      OFFSET 6.033198 0.0 4e-06
                      CHANNELS 3 Zrotation Yrotation Xrotation
                      JOINT LeftHandRing3
                      {
                        OFFSET 4.350578 3e-06 0.0
                        CHANNELS 3 Zrotation Yrotation Xrotation
                        JOINT LeftHandRing4
                        {
                          OFFSET 2.651321 2e-06 -7e-06
                          CHANNELS 3 Zrotation Yrotation Xrotation
                          JOINT LeftHandRingEnd
                          {
                            OFFSET 1.937663 1e-06 -4e-06
                            CHANNELS 3 Zrotation Yrotation Xrotation
                          }
                        }
                      }
                    }
                  }
                  JOINT LeftHandPinky1
                  {
                    OFFSET 2.865315 -1.525436 0.575687
                    CHANNELS 3 Zrotation Yrotation Xrotation
                    JOINT LeftHandPinky2
                    {
                      OFFSET 5.54936 1e-06 -8e-06
                      CHANNELS 3 Zrotation Yrotation Xrotation
                      JOINT LeftHandPinky3
                      {
                        OFFSET 3.070974 0.0 -4e-06
                        CHANNELS 3 Zrotation Yrotation Xrotation
                        JOINT LeftHandPinky4
                        {
                          OFFSET 1.549672 1e-06 0.0
                          CHANNELS 3 Zrotation Yrotation Xrotation
                          JOINT LeftHandPinkyEnd
                          {
                            OFFSET 1.952123 0.0 0.0
                            CHANNELS 3 Zrotation Yrotation Xrotation
                          }
                        }
                      }
                    }
                  }
                }
              }
            }
          }
          JOINT RightShoulder
          {
            OFFSET 23.161716 5.296122 -1.380114
            CHANNELS 3 Zrotation Yrotation Xrotation
            JOINT RightArm
            {
              OFFSET -16.027195 -2e-06 1.1e-05
              CHANNELS 3 Zrotation Yrotation Xrotation
              JOINT RightForeArm
              {
                OFFSET -28.736639 4e-06 2e-06
                CHANNELS 3 Zrotation Yrotation Xrotation
                JOINT RightHand
                {
                  OFFSET -27.133619 6e-06 0.0
                  CHANNELS 3 Zrotation Yrotation Xrotation
                  JOINT RightHandThumb1
                  {
                    OFFSET -2.274328 -3.351035 -0.83067
                    CHANNELS 3 Zrotation Yrotation Xrotation
                    JOINT RightHandThumb2
                    {
                      OFFSET -4.703594 -3e-06 2e-06
                      CHANNELS 3 Zrotation Yrotation Xrotation
                      JOINT RightHandThumb3
                      {
                        OFFSET -2.794935 -4e-06 -3e-06
                        CHANNELS 3 Zrotation Yrotation Xrotation
                        JOINT RightHandThumbEnd
                        {
                          OFFSET -3.183852 4e-06 1e-06
                          CHANNELS 3 Zrotation Yrotation Xrotation
                        }
                      }
                    }
                  }
                  JOINT RightHandIndex1
                  {
                    OFFSET -3.253496 -2.33755 -0.127667
                    CHANNELS 3 Zrotation Yrotation Xrotation
                    JOINT RightHandIndex2
                    {
                      OFFSET -6.344434 0.0 0.0
                      CHANNELS 3 Zrotation Yrotation Xrotation
                      JOINT RightHandIndex3
                      {
                        OFFSET -3.654871 0.0 -8e-06
                        CHANNELS 3 Zrotation Yrotation Xrotation
                        JOINT RightHandIndex4
                        {
                          OFFSET -2.327586 -1e-06 0.0
                          CHANNELS 3 Zrotation Yrotation Xrotation
                          JOINT RightHandIndexEnd
                          {
                            OFFSET -2.770001 3e-06 8e-06
                            CHANNELS 3 Zrotation Yrotation Xrotation
                          }
                        }
                      }
                    }
                  }
                  JOINT RightHandMiddle1
                  {
                    OFFSET -3.168223 -0.944764 0.411762
                    CHANNELS 3 Zrotation Yrotation Xrotation
                    JOINT RightHandMiddle2
                    {
                      OFFSET -6.266691 -1e-06 -4e-06
                      CHANNELS 3 Zrotation Yrotation Xrotation
                      JOINT RightHandMiddle3
                      {
                        OFFSET -4.348901 0.0 0.0
                        CHANNELS 3 Zrotation Yrotation Xrotation
                        JOINT RightHandMiddle4
                        {
                          OFFSET -3.00024 2e-06 -4e-06
                          CHANNELS 3 Zrotation Yrotation Xrotation
                          JOINT RightHandMiddleEnd
                          {
                            OFFSET -2.321477 -4e-06 -4e-06
                            CHANNELS 3 Zrotation Yrotation Xrotation
                          }
                        }
                      }
                    }
                  }
                  JOINT RightHandRing1
                  {
                    OFFSET -2.885654 0.293261 -0.119232
                    CHANNELS 3 Zrotation Yrotation Xrotation
                    JOINT RightHandRing2
                    {
                      OFFSET -6.032835 -1e-06 -4e-06
                      CHANNELS 3 Zrotation Yrotation Xrotation
                      JOINT RightHandRing3
                      {
                        OFFSET -4.33881 0.0 -4e-06
                        CHANNELS 3 Zrotation Yrotation Xrotation
                        JOINT RightHandRing4
                        {
                          OFFSET -2.654903 -4e-06 -4e-06
                          CHANNELS 3 Zrotation Yrotation Xrotation
                          JOINT RightHandRingEnd
                          {
                            OFFSET -1.935122 0.0 4e-06
                            CHANNELS 3 Zrotation Yrotation Xrotation
                          }
                        }
                      }
                    }
                  }
                  JOINT RightHandPinky1
                  {
                    OFFSET -2.866241 1.503904 -0.60527
                    CHANNELS 3 Zrotation Yrotation Xrotation
                    JOINT RightHandPinky2
                    {
                      OFFSET -5.553177 -2e-06 0.0
                      CHANNELS 3 Zrotation Yrotation Xrotation
                      JOINT RightHandPinky3
                      {
                        OFFSET -3.062664 -1e-06 -4e-06
                        CHANNELS 3 Zrotation Yrotation Xrotation
                        JOINT RightHandPinky4
                        {
                          OFFSET -1.546529 2e-06 4e-06
                          CHANNELS 3 Zrotation Yrotation Xrotation
                          JOINT RightHandPinkyEnd
                          {
                            OFFSET -1.952341 0.0 -4e-06
                            CHANNELS 3 Zrotation Yrotation Xrotation
                          }
                        }
                      }
                    }
                  }
                }
              }
            }
          }
        }
      }
    }
    JOINT LeftLeg
    {
      OFFSET -8.443107 2.567604 10.043214
      CHANNELS 3 Zrotation Yrotation Xrotation
      JOINT LeftShin
      {
        OFFSET 43.229198 1e-06 -1e-06
        CHANNELS 3 Zrotation Yrotation Xrotation
        JOINT LeftFoot
        {
          OFFSET 42.298611 1e-06 1e-06
          CHANNELS 3 Zrotation Yrotation Xrotation
          JOINT LeftToeBase
          {
            OFFSET 14.165858 1e-06 0.0
            CHANNELS 3 Zrotation Yrotation Xrotation
            JOINT LeftToeEnd
            {
              OFFSET 6.7141 -0.234461 0.0
              CHANNELS 3 Zrotation Yrotation Xrotation
            }
          }
        }
      }
    }
    JOINT RightLeg
    {
      OFFSET -8.303923 2.592729 -10.047278
      CHANNELS 3 Zrotation Yrotation Xrotation
      JOINT RightShin
      {
        OFFSET -43.369682 0.0 1e-06
        CHANNELS 3 Zrotation Yrotation Xrotation
        JOINT RightFoot
        {
          OFFSET -42.260784 4e-06 2e-06
          CHANNELS 3 Zrotation Yrotation Xrotation
          JOINT RightToeBase
          {
            OFFSET -14.222245 -2e-06 -1e-06
            CHANNELS 3 Zrotation Yrotation Xrotation
            JOINT RightToeEnd
            {
              OFFSET -6.660062 0.232574 -2e-06
              CHANNELS 3 Zrotation Yrotation Xrotation
            }
          }
        }
      }
    }
  }
}
MOTION
Frames: 4
Frame Time: 0.03333333333333333
0.0 0.0 0.0 0.0 -0.0 0.0 3.639809 99.199066 -4.39275 90.62043 0.755132 90.15271 -3.90062 -0.810301 -0.027286 -12.405951 -0.754815 -0.37161 20.22678 0.876346 -2.114478 20.637604 0.179745 2.568806 -2.49464 -0.5464 2.114198 -30.453236 0.618391 2.031947 6e-06 0.0 -0.0 0.019114 0.000242 -0.059921 0.018273 0.026883 -0.061607 0.007632 -0.026507 -0.051478 -140.326462 -70.81134 157.417953 30.076509 -46.73703 13.685412 35.081745 0.123043 0.021107 -1.803362 -1.652491 -6.759836 17.636625 -26.322729 52.411179 -19.466656 -14.395597 29.410378 -0.0 -8.77482 -2e-06 16.319864 -18.12122 5.970351 -0.609777 -1.795653 -3.889329 -4.807087 -11.046809 -2.937848 3e-06 -20.976019 2e-06 -5.019974 -25.033556 -4.031877 8e-06 -2e-06 1e-06 -10.634535 -5.686971 -3.565583 10.573272 -17.922947 -3.113902 1e-06 -13.821212 1e-06 -0.501781 -31.181507 -4.027012 -11.66495 -59.901974 7.317939 -13.982712 -7.150198 -2.87504 13.772727 -8.401491 -3.21824 0.347732 -34.211555 0.771654 -0.96303 -17.733372 2.62102 2e-06 0.0 -0.0 -17.346416 -20.095217 -4.20178 21.757557 -1.638377 3.866427 2e-06 -6.338823 -0.0 -1.69759 -22.591747 -6.194003 -0.0 -4e-06 -1e-06 30.433126 -71.336853 166.566864 34.922775 -44.035767 20.796482 36.211002 -0.453705 -0.083917 -1.581291 6.466515 -8.018225 22.182116 -20.375891 49.933319 -16.701809 -16.743528 28.476528 -2e-06 -12.6906 0.0 16.13225 -17.618832 2.680876 -0.105921 -1.513856 -4.27588 -5.039041 -5.612872 -2.953556 4e-06 -11.02052 -2e-06 -6.111297 -15.895332 -3.84047 0.0 1e-06 -1e-06 -10.283371 -5.680288 -4.341836 11.028293 -11.302402 -2.372633 -1.384272 -14.238579 -6.320118 -0.625441 -26.924187 -3.8276 -4.430318 -49.674805 -3.579229 -13.708523 -7.363475 -3.720942 18.141146 -14.052736 -3.242673 4e-06 -18.78727 -0.0 -0.429714 -8.456042 2.555507 3e-06 -1e-06 -3e-06 -15.923536 -20.094482 -5.473583 30.41921 -7.190824 1.735928 1e-06 -8.162925 -1e-06 -1.861903 -22.861471 -6.167941 0.0 -4e-06 -1e-06 178.181427 -2.777521 -7.426761 18.343849 -0.07189 0.12925 -84.390892 -1.265084 -3.461663 -4.05972 1.328901 2.098532 -0.999998 0.0 0.0 -4.312838 -3.497753 2.083652 20.877031 -0.104335 0.061133 -84.823135 -2.013368 -6.111863 -4.17596 0.755499 1.690549 -1.0 -0.0 0.0 
0.0 0.0 0.0 0.0 -0.0 0.0 3.625269 99.217514 -4.376063 90.618217 0.764999 90.136688 -3.905277 -0.800472 -0.05933 -12.398376 -0.728047 -0.304362 20.220867 0.914778 -2.154839 20.668543 0.11313 2.548497 -2.468091 -0.520019 2.147897 -30.472542 0.578752 2.09012 6e-06 0.0 -0.0 0.019351 0.00343 -0.023956 0.038682 0.033056 -0.022476 0.02323 -0.025986 -0.018543 -140.331421 -70.733162 157.554062 30.095903 -46.685081 13.450654 35.159084 0.019851 -0.043657 -1.813834 -1.712923 -6.495913 17.636625 -26.322729 52.411194 -19.46666 -14.395597 29.410393 -0.0 -8.77482 -3e-06 16.281816 -18.0697 5.965849 -0.609776 -1.795653 -3.889328 -4.807086 -11.046809 -2.93785 5e-06 -20.976015 -0.0 -5.019968 -25.033552 -4.03188 7e-06 -0.0 0.0 -10.634531 -5.686968 -3.565588 10.573277 -17.922951 -3.113901 3e-06 -13.821209 0.0 -0.501774 -31.181501 -4.027016 -11.701516 -59.891457 7.42186 -13.982712 -7.150196 -2.875042 13.772727 -8.401491 -3.218242 0.347736 -34.211536 0.771655 -0.963029 -17.733368 2.62102 -1e-06 1e-06 -0.0 -17.346415 -20.095217 -4.20178 21.757557 -1.638376 3.866427 3e-06 -6.338823 -0.0 -1.697588 -22.591742 -6.194002 1e-06 -4e-06 -1e-06 30.634188 -71.310852 166.500534 35.074909 -43.999268 20.576544 36.085701 -0.378472 -0.097977 -1.355204 6.417852 -7.830056 22.182117 -20.375898 49.933327 -16.701813 -16.743525 28.476532 -2e-06 -12.690601 -1e-06 16.120621 -17.626028 2.694324 -0.10592 -1.513858 -4.275879 -5.039041 -5.612874 -2.953555 5e-06 -11.020524 -3e-06 -6.111298 -15.895334 -3.840472 1e-06 -1e-06 -1e-06 -10.283371 -5.680288 -4.341839 11.028294 -11.302406 -2.372635 -1.384269 -14.238582 -6.320119 -0.625442 -26.924187 -3.827597 -4.481768 -49.782745 -3.535426 -13.708526 -7.363478 -3.72094 18.14115 -14.05274 -3.242674 7e-06 -18.787271 -1e-06 -0.429713 -8.456043 2.555504 3e-06 -1e-06 -1e-06 -15.923532 -20.094482 -5.473587 30.41921 -7.190827 1.735925 0.0 -8.162927 0.0 -1.8619 -22.861469 -6.167946 0.0 -4e-06 0.0 178.291077 -2.761682 -7.338722 18.163454 -0.072408 0.163548 -84.315567 -1.314506 -3.539837 -4.055479 1.350118 2.10994 -0.999999 -1e-06 0.0 -4.222049 -3.470353 2.175231 20.731365 -0.105391 0.086171 -84.755699 -2.147825 -6.063248 -4.196664 0.741579 1.692472 -1.000002 0.0 0.0 
0.0 0.0 0.0 0.0 -0.0 0.0 3.631511 99.211014 -4.312562 90.644432 0.792653 90.131454 -3.916085 -0.801148 -0.069658 -12.415686 -0.719017 -0.27784 20.280588 0.936789 -2.179171 20.706165 0.057101 2.567292 -2.486909 -0.505206 2.132383 -30.448341 0.548122 2.130617 6e-06 -0.0 -0.0 0.01814 0.004998 -0.010624 0.035135 0.034886 -0.007207 0.020165 -0.024809 -0.00764 -140.311737 -70.677505 157.621185 30.03364 -46.6759 13.354935 35.255013 -0.023324 -0.076142 -1.913362 -1.792063 -6.417695 17.636627 -26.322733 52.41119 -19.46666 -14.395594 29.410385 -1e-06 -8.774821 -2e-06 16.272083 -18.071186 5.967244 -0.609775 -1.795653 -3.889327 -4.807089 -11.046809 -2.93785 4e-06 -20.976015 3e-06 -5.019969 -25.033556 -4.031879 6e-06 1e-06 1e-06 -10.634533 -5.68697 -3.565589 10.573271 -17.922947 -3.1139 2e-06 -13.821206 2e-06 -0.501781 -31.181498 -4.027013 -11.78457 -59.906109 7.49299 -13.982711 -7.150196 -2.875044 13.772727 -8.401489 -3.21824 0.347735 -34.211544 0.771655 -0.96303 -17.733366 2.621023 1e-06 0.0 -1e-06 -17.346413 -20.095213 -4.201782 21.757555 -1.638376 3.866427 2e-06 -6.338823 -1e-06 -1.697588 -22.591743 -6.194005 0.0 -2e-06 -2e-06 30.696693 -71.287712 166.521622 35.137001 -43.97406 20.46328 36.018566 -0.336537 -0.102484 -1.233746 6.439504 -7.708126 22.182106 -20.375898 49.933319 -16.701813 -16.743528 28.47653 -3e-06 -12.690601 0.0 16.120857 -17.607231 2.709663 -0.105921 -1.513858 -4.275883 -5.039039 -5.612872 -2.953554 5e-06 -11.020523 -4e-06 -6.111296 -15.895334 -3.840471 -0.0 1e-06 -0.0 -10.283369 -5.680288 -4.341835 11.02829 -11.302406 -2.372635 -1.384271 -14.238579 -6.32012 -0.625437 -26.924191 -3.827597 -4.507106 -49.823902 -3.515709 -13.708524 -7.363476 -3.720937 18.141148 -14.052738 -3.242677 7e-06 -18.78727 -1e-06 -0.429711 -8.456044 2.555504 3e-06 -1e-06 -1e-06 -15.923532 -20.094482 -5.473586 30.41921 -7.190825 1.735923 1e-06 -8.162925 1e-06 -1.861902 -22.861467 -6.167938 2e-06 -5e-06 0.0 178.391846 -2.710584 -7.260932 18.105856 -0.075168 0.18328 -84.336487 -1.361467 -3.5694 -3.99708 1.358167 2.118226 -0.999999 0.0 0.0 -4.159845 -3.494695 2.241567 20.75388 -0.09982 0.095337 -84.807831 -2.274255 -6.055823 -4.17381 0.732901 1.691815 -1.000001 0.0 0.0 
0.0 0.0 0.0 0.0 -0.0 0.0 3.604447 99.203789 -4.269356 90.672691 0.826709 90.137566 -3.927459 -0.803397 -0.069883 -12.435779 -0.713319 -0.279735 20.35379 0.945448 -2.17369 20.772165 -0.003833 2.58396 -2.52061 -0.501144 2.141504 -30.447649 0.518914 2.141776 6e-06 -0.0 -0.0 0.014842 0.005181 -0.006407 0.016979 0.034613 -0.002765 0.001651 -0.024244 -0.004186 -140.29686 -70.615875 157.66214 29.953918 -46.682507 13.35939 35.311138 -0.024459 -0.079049 -2.020561 -1.842837 -6.379497 17.636627 -26.322725 52.411182 -19.46666 -14.395596 29.410381 -0.0 -8.77482 -2e-06 16.260534 -18.056295 5.964714 -0.609776 -1.795654 -3.889326 -4.807087 -11.046809 -2.937852 6e-06 -20.976015 1e-06 -5.019969 -25.033545 -4.031878 6e-06 -1e-06 0.0 -10.634533 -5.686969 -3.565588 10.573274 -17.922947 -3.113902 4e-06 -13.821209 1e-06 -0.501777 -31.181501 -4.027012 -11.831945 -59.905754 7.509517 -13.982712 -7.150197 -2.87504 13.77273 -8.401491 -3.218242 0.347737 -34.211552 0.771652 -0.963025 -17.733368 2.621017 1e-06 -0.0 -1e-06 -17.346416 -20.095217 -4.201782 21.757557 -1.638377 3.866428 3e-06 -6.338824 -0.0 -1.697588 -22.591742 -6.194005 -1e-06 -2e-06 -1e-06 30.699423 -71.254982 166.581482 35.141182 -43.936611 20.521486 35.987656 -0.279786 -0.083627 -1.172039 6.421874 -7.671955 22.182112 -20.375883 49.9333 -16.701818 -16.74353 28.476528 -4e-06 -12.690603 2e-06 16.114637 -17.575136 2.710386 -0.105919 -1.513856 -4.27588 -5.039039 -5.612872 -2.953555 6e-06 -11.020523 -4e-06 -6.111299 -15.895332 -3.840472 0.0 -0.0 1e-06 -10.283371 -5.680289 -4.341836 11.028296 -11.302407 -2.372636 -1.384268 -14.238585 -6.320119 -0.625436 -26.924191 -3.827601 -4.519194 -49.793381 -3.505149 -13.708527 -7.363475 -3.720939 18.141153 -14.052739 -3.242676 8e-06 -18.78727 -4e-06 -0.429712 -8.456043 2.555505 2e-06 -1e-06 -2e-06 -15.923536 -20.094482 -5.473586 30.419218 -7.190829 1.735923 2e-06 -8.162926 -2e-06 -1.861898 -22.861469 -6.167945 1e-06 -4e-06 -1e-06 178.479599 -2.685512 -7.211589 18.058348 -0.079699 0.189567 -84.342361 -1.387629 -3.60168 -3.959517 1.352441 2.119502 -0.999999 1e-06 0.0 -4.117672 -3.507987 2.243495 20.80715 -0.095771 0.093033 -84.864777 -2.340231 -6.042617 -4.145352 0.722832 1.689327 -1.000002 0.0 0.0 
